<svg width="20" height="15" viewBox="0 0 20 15" fill="none" xmlns="http://www.w3.org/2000/svg">
<path d="M8 10.5332L13.19 7.5332L8 4.5332V10.5332ZM19.56 2.7032C19.69 3.1732 19.78 3.8032 19.84 4.6032C19.91 5.4032 19.94 6.0932 19.94 6.6932L20 7.5332C20 9.7232 19.84 11.3332 19.56 12.3632C19.31 13.2632 18.73 13.8432 17.83 14.0932C17.36 14.2232 16.5 14.3132 15.18 14.3732C13.88 14.4432 12.69 14.4732 11.59 14.4732L10 14.5332C5.81 14.5332 3.2 14.3732 2.17 14.0932C1.27 13.8432 0.69 13.2632 0.44 12.3632C0.31 11.8932 0.22 11.2632 0.16 10.4632C0.0900001 9.6632 0.0599999 8.9732 0.0599999 8.3732L0 7.5332C0 5.3432 0.16 3.7332 0.44 2.7032C0.69 1.8032 1.27 1.2232 2.17 0.973203C2.64 0.843203 3.5 0.753203 4.82 0.693203C6.12 0.623203 7.31 0.593203 8.41 0.593203L10 0.533203C14.19 0.533203 16.8 0.693203 17.83 0.973203C18.73 1.2232 19.31 1.8032 19.56 2.7032Z" fill="black"/>
</svg>
